<?xml version="1.0" encoding="utf-8"?>
<!-- Generator: Adobe Illustrator 24.2.3, SVG Export Plug-In . SVG Version: 6.00 Build 0)  -->
<svg version="1.1" id="Layer_1" xmlns="http://www.w3.org/2000/svg" xmlns:xlink="http://www.w3.org/1999/xlink" x="0px" y="0px"
	 viewBox="0 0 2169 896" enable-background="new 0 0 2169 896" xml:space="preserve">
<rect x="0" y="0" fill="#727272" width="2169" height="896"/>
<path opacity="0.48" fill="#002149" d="M291.7,1073.6"/>
<rect x="190.3" y="-256.5" transform="matrix(0.9043 0.4269 -0.4269 0.9043 171.8648 -59.4771)" fill="#6B6B6B" width="56.5" height="1220.1"/>
<rect x="194.9" y="-222.7" transform="matrix(0.9043 0.4269 -0.4269 0.9043 187.5525 -61.9228)" opacity="0.71" fill="#444444" width="73.9" height="1220.1"/>
<rect x="493.6" y="-135.1" transform="matrix(0.9043 0.4269 -0.4269 0.9043 253.5161 -181.021)" opacity="0.71" fill="#5B5B5B" width="73.9" height="1220.1"/>
<rect x="290.2" y="-208" transform="matrix(0.9043 0.4269 -0.4269 0.9043 200.1644 -88.8496)" fill="#444444" width="16" height="1220.1"/>
<rect x="329.7" y="-208" transform="matrix(0.9043 0.4269 -0.4269 0.9043 203.9429 -105.705)" fill="#444444" width="16" height="1220.1"/>
<rect x="375" y="-169.4" transform="matrix(0.9043 0.4269 -0.4269 0.9043 231.9215 -153.2873)" fill="#424242" width="165.7" height="1220.1"/>
<line fill="#6B6B6B" x1="668.7" y1="-153.1" x2="683.2" y2="-146.2"/>
<line fill="#474747" x1="757.7" y1="-133.2" x2="772.2" y2="-126.3"/>
<line fill="#474747" x1="804.7" y1="-134.9" x2="819.2" y2="-128.1"/>
<line fill="#474747" x1="785.3" y1="-143.3" x2="799.8" y2="-136.5"/>
<line fill="#6B6B6B" x1="865.1" y1="-128.1" x2="879.6" y2="-121.3"/>
<polyline fill="#5B5B5B" points="771.5,-176.4 773.8,-175.3 252.9,928.1 250.6,927 "/>
<rect x="517.3" y="-235.2" transform="matrix(0.9043 0.4269 -0.4269 0.9043 209.6651 -185.5034)" fill="#5B5B5B" width="2.5" height="1220.1"/>
<rect x="523.5" y="-235.1" transform="matrix(0.9043 0.4269 -0.4269 0.9043 210.2991 -188.1381)" fill="#5B5B5B" width="2.5" height="1220.1"/>
<polyline fill="#5B5B5B" points="756.4,-183.6 758.7,-182.5 237.8,920.8 235.5,919.8 "/>
<rect x="502.2" y="-242.4" transform="matrix(0.9043 0.4269 -0.4269 0.9043 205.1347 -179.7457)" fill="#5B5B5B" width="2.5" height="1220.1"/>
<rect x="508.4" y="-242.3" transform="matrix(0.9043 0.4269 -0.4269 0.9043 205.7688 -182.3804)" fill="#5B5B5B" width="2.5" height="1220.1"/>
<polyline fill="#5B5B5B" points="739.9,-187.5 742.2,-186.5 221.3,916.9 219,915.8 "/>
<rect x="485.7" y="-246.4" transform="matrix(0.9043 0.4269 -0.4269 0.9043 201.8656 -173.0883)" fill="#5B5B5B" width="2.5" height="1220.1"/>
<rect x="491.9" y="-246.3" transform="matrix(0.9043 0.4269 -0.4269 0.9043 202.4996 -175.723)" fill="#5B5B5B" width="2.5" height="1220.1"/>
<rect x="-17.5" y="-260.8" transform="matrix(0.9043 0.4269 -0.4269 0.9043 156.0836 2.1867)" fill="#5B5B5B" width="181.3" height="1220.1"/>
<rect x="849" y="-162.1" transform="matrix(0.9043 0.4269 -0.4269 0.9043 281.1691 -358.2522)" fill="#474747" width="181.3" height="1220.1"/>
<rect x="764.4" y="-172.8" transform="matrix(0.9043 0.4269 -0.4269 0.9043 268.5088 -323.1728)" fill="#6B6B6B" width="181.3" height="1220.1"/>
<rect x="1177" y="-167.4" transform="matrix(0.9043 0.4269 -0.4269 0.9043 302.6532 -464.786)" fill="#5B5B5B" width="22.1" height="1220.1"/>
<rect x="1219.9" y="-172.8" transform="matrix(0.9043 0.4269 -0.4269 0.9043 304.481 -483.6406)" fill="#5B5B5B" width="22.1" height="1220.1"/>
<rect x="1085.1" y="-169.1" transform="matrix(0.9043 0.4269 -0.4269 0.9043 295.6704 -436.998)" fill="#6B6B6B" width="74.9" height="1220.1"/>
<line fill="#6B6B6B" x1="291.1" y1="-241.2" x2="305.6" y2="-234.3"/>
<path fill="#6B6B6B" d="M394.6-214.4"/>
<line fill="#062E56" x1="-124.7" y1="840" x2="-127" y2="838.9"/>
<line fill="#062E56" x1="-118.3" y1="839" x2="-120.6" y2="838"/>
<line fill="#062E56" x1="-112.1" y1="839.1" x2="-114.4" y2="838.1"/>
<line fill="#062E56" x1="-139.8" y1="832.8" x2="-142.1" y2="831.7"/>
<line fill="#062E56" x1="-133.4" y1="831.8" x2="-135.7" y2="830.7"/>
<line fill="#062E56" x1="-127.3" y1="831.9" x2="-129.5" y2="830.8"/>
<line fill="#062E56" x1="-156.3" y1="828.8" x2="-158.6" y2="827.7"/>
<line fill="#062E56" x1="-149.9" y1="827.8" x2="-152.2" y2="826.8"/>
<line fill="#062E56" x1="-143.7" y1="827.9" x2="-146" y2="826.9"/>
<line fill="#002149" x1="-492.4" y1="770.6" x2="-507" y2="763.8"/>
<line fill="#002149" x1="-471.7" y1="810.4" x2="-486.2" y2="803.6"/>
<line fill="#002149" x1="-431.1" y1="810.4" x2="-445.6" y2="803.6"/>
<line fill="#002149" x1="-391.6" y1="810.4" x2="-406.1" y2="803.6"/>
<line fill="#6B6B6B" x1="153.1" y1="-299.8" x2="167.6" y2="-293"/>
<line fill="#002149" x1="-353.3" y1="810.4" x2="-367.8" y2="803.6"/>
<line fill="#6B6B6B" x1="192.6" y1="-299.8" x2="207.1" y2="-293"/>
<line fill="#002149" x1="-313.8" y1="810.4" x2="-328.3" y2="803.6"/>
<line fill="#062E56" x1="-224.8" y1="830.3" x2="-239.3" y2="823.5"/>
<line fill="#062E56" x1="-177.8" y1="828.6" x2="-192.3" y2="821.7"/>
<line fill="#062E56" x1="-197.2" y1="820.2" x2="-211.7" y2="813.3"/>
<line fill="#6B6B6B" x1="1294.6" y1="-87.4" x2="1309.1" y2="-80.6"/>
<line fill="#6B6B6B" x1="1341.5" y1="-89.2" x2="1356" y2="-82.3"/>
<line fill="#6B6B6B" x1="1322.1" y1="-97.5" x2="1336.6" y2="-90.7"/>
<line fill="#6B6B6B" x1="1246.4" y1="-104.4" x2="1260.9" y2="-97.6"/>
<line fill="#6B6B6B" x1="1287.1" y1="-104.4" x2="1301.6" y2="-97.6"/>
<line fill="#6B6B6B" x1="1326.5" y1="-104.4" x2="1341.1" y2="-97.6"/>
<line fill="#6B6B6B" x1="1364.9" y1="-104.4" x2="1379.4" y2="-97.6"/>
<line fill="#6B6B6B" x1="1404.4" y1="-104.4" x2="1418.9" y2="-97.6"/>
<rect x="1420.2" y="-213.1" transform="matrix(0.9043 0.4269 -0.4269 0.9043 306.1396 -571.7253)" fill="#444444" width="16" height="1220.1"/>
<rect x="1459.8" y="-213.1" transform="matrix(0.9043 0.4269 -0.4269 0.9043 309.9214 -588.5958)" fill="#444444" width="16" height="1220.1"/>
<rect x="1500.4" y="-213.1" transform="matrix(0.9043 0.4269 -0.4269 0.9043 313.8111 -605.9469)" fill="#444444" width="16" height="1220.1"/>
<rect x="1539.9" y="-213.1" transform="matrix(0.9043 0.4269 -0.4269 0.9043 317.5896 -622.8022)" fill="#444444" width="16" height="1220.1"/>
<rect x="1578.2" y="-213.1" transform="matrix(0.9043 0.4269 -0.4269 0.9043 321.257 -639.1619)" fill="#444444" width="16" height="1220.1"/>
<rect x="1617.7" y="-213.1" transform="matrix(0.9043 0.4269 -0.4269 0.9043 325.0355 -656.0172)" fill="#444444" width="16" height="1220.1"/>
<rect x="1787.2" y="-162.1" transform="matrix(0.9043 0.4269 -0.4269 0.9043 363.0469 -723.4966)" fill="#5B5B5B" width="16" height="1220.1"/>
<rect x="1826.7" y="-162.1" transform="matrix(0.9043 0.4269 -0.4269 0.9043 366.8288 -740.3669)" fill="#5B5B5B" width="16" height="1220.1"/>
<rect x="1867.4" y="-162.1" transform="matrix(0.9043 0.4269 -0.4269 0.9043 370.7184 -757.7181)" fill="#5B5B5B" width="16" height="1220.1"/>
<rect x="1906.9" y="-162.1" transform="matrix(0.9043 0.4269 -0.4269 0.9043 374.4969 -774.5734)" fill="#5B5B5B" width="16" height="1220.1"/>
<rect x="1945.2" y="-162.1" transform="matrix(0.9043 0.4269 -0.4269 0.9043 378.1643 -790.9331)" fill="#5B5B5B" width="16" height="1220.1"/>
<rect x="1984.7" y="-162.1" transform="matrix(0.9043 0.4269 -0.4269 0.9043 381.9428 -807.7885)" fill="#5B5B5B" width="16" height="1220.1"/>
<line fill="#062E56" x1="696.2" y1="316.8" x2="698.4" y2="317.9"/>
<line fill="#062E56" x1="177.6" y1="1421.2" x2="175.3" y2="1420.1"/>
<line fill="#062E56" x1="696.2" y1="316.8" x2="698.4" y2="317.9"/>
<line fill="#062E56" x1="177.6" y1="1421.2" x2="175.3" y2="1420.1"/>
<line fill="#062E56" x1="696.2" y1="316.8" x2="698.4" y2="317.9"/>
<line fill="#062E56" x1="177.6" y1="1421.2" x2="175.3" y2="1420.1"/>
<line fill="#062E56" x1="691.9" y1="314" x2="694.2" y2="315.1"/>
<line fill="#062E56" x1="173.3" y1="1418.5" x2="171.1" y2="1417.4"/>
<line fill="#062E56" x1="687.1" y1="312.5" x2="689.4" y2="313.6"/>
<line fill="#062E56" x1="168.5" y1="1416.9" x2="166.3" y2="1415.9"/>
<line fill="#062E56" x1="681.3" y1="311.5" x2="683.6" y2="312.6"/>
<line fill="#062E56" x1="162.7" y1="1415.9" x2="160.5" y2="1414.9"/>
<line fill="#062E56" x1="675.8" y1="311.5" x2="678" y2="312.6"/>
<line fill="#062E56" x1="157.2" y1="1415.9" x2="154.9" y2="1414.9"/>
</svg>
